<svg width="22" height="22" viewBox="0 0 22 22" fill="none" xmlns="http://www.w3.org/2000/svg">
<path d="M14.5832 11.1053L22 15.7941V6.21855L14.5832 11.1053Z" fill="#CCCCCC"/>
<path d="M0 6.21855V15.7941L7.41675 11.1053L0 6.21855Z" fill="#CCCCCC"/>
<path d="M20.625 3.43005H1.375C0.688873 3.43005 0.144373 3.94155 0.0412483 4.60018L11 11.8203L21.9588 4.60018C21.8556 3.94155 21.3111 3.43005 20.625 3.43005Z" fill="#CCCCCC"/>
<path d="M13.3237 11.9358L11.3781 13.2173C11.2626 13.2929 11.132 13.3301 11 13.3301C10.868 13.3301 10.7374 13.2929 10.6219 13.2173L8.67625 11.9344L0.0439968 17.3946C0.149872 18.0477 0.691622 18.5551 1.375 18.5551H20.625C21.3084 18.5551 21.8501 18.0477 21.956 17.3946L13.3237 11.9358Z" fill="#CCCCCC"/>
</svg>
