<svg width="56" height="56" viewBox="0 0 56 56" fill="none" xmlns="http://www.w3.org/2000/svg">
<path d="M41.5495 14.335C38.4412 14.335 35.9126 16.8637 35.9126 19.9719C35.9126 23.08 38.4412 25.6087 41.5495 25.6087C44.6576 25.6087 47.1863 23.0801 47.1863 19.9719C47.1863 16.8635 44.6577 14.335 41.5495 14.335ZM41.5495 23.4212C39.6474 23.4212 38.1001 21.8739 38.1001 19.9719C38.1001 18.0698 39.6474 16.5225 41.5495 16.5225C43.4514 16.5225 44.9988 18.0698 44.9988 19.9719C44.9988 21.8737 43.4515 23.4212 41.5495 23.4212Z" fill="#5196F8"/>
<path d="M41.5877 49.3479C41.5603 49.2812 41.5264 49.2177 41.487 49.1587C41.4477 49.0985 41.4017 49.0428 41.3514 48.9924C41.3011 48.9421 41.2453 48.8962 41.1852 48.8568C41.1261 48.8174 41.0627 48.7835 40.9959 48.7562C40.9303 48.7288 40.8614 48.707 40.7914 48.6938C40.6503 48.6654 40.5059 48.6654 40.3648 48.6938C40.2948 48.707 40.2259 48.7288 40.1603 48.7562C40.0936 48.7835 40.0302 48.8174 39.9711 48.8568C39.9109 48.8962 39.8552 48.9421 39.8048 48.9924C39.7545 49.0428 39.7086 49.0985 39.6692 49.1587C39.6298 49.2177 39.5959 49.2812 39.5686 49.3479C39.5412 49.4135 39.5194 49.4824 39.5063 49.5524C39.492 49.6224 39.4844 49.6946 39.4844 49.7657C39.4844 49.8368 39.492 49.909 39.5063 49.979C39.5194 50.049 39.5412 50.1179 39.5686 50.1835C39.5959 50.2502 39.6298 50.3137 39.6692 50.3727C39.7086 50.4329 39.7545 50.4887 39.8048 50.539C39.8299 50.564 39.8564 50.588 39.8839 50.6106C39.9118 50.6334 39.9409 50.6549 39.9711 50.6746C40.0302 50.714 40.0936 50.7479 40.1603 50.7752C40.2259 50.8026 40.2948 50.8245 40.3648 50.8376C40.4348 50.8518 40.507 50.8595 40.5781 50.8595C40.6492 50.8595 40.7214 50.8518 40.7914 50.8376C40.8614 50.8245 40.9303 50.8026 40.9959 50.7752C41.0627 50.7479 41.1261 50.714 41.1852 50.6746C41.2153 50.6548 41.2444 50.6334 41.2723 50.6106C41.3 50.588 41.3264 50.564 41.3514 50.539C41.4017 50.4887 41.4477 50.4329 41.487 50.3727C41.5264 50.3137 41.5603 50.2502 41.5877 50.1835C41.615 50.1179 41.6369 50.049 41.6511 49.979C41.6653 49.909 41.6719 49.8368 41.6719 49.7657C41.6719 49.6946 41.6653 49.6224 41.6511 49.5524C41.6369 49.4823 41.615 49.4134 41.5877 49.3479Z" fill="#5196F8"/>
<path d="M24.3743 6.06492C24.3469 5.99929 24.313 5.93585 24.2737 5.8757C24.2343 5.81664 24.1883 5.75976 24.138 5.70945C24.0877 5.65914 24.0319 5.6132 23.9718 5.57382C23.9127 5.53445 23.8493 5.50054 23.7826 5.4732C23.7169 5.44585 23.648 5.42507 23.578 5.41085C23.4369 5.38242 23.2926 5.38242 23.1515 5.41085C23.0815 5.42507 23.0126 5.44585 22.9458 5.4732C22.8802 5.50054 22.8168 5.53445 22.7577 5.57382C22.6976 5.6132 22.6418 5.65914 22.5915 5.70945C22.5412 5.75976 22.4952 5.81664 22.4547 5.8757C22.4154 5.93585 22.3826 5.99929 22.3552 6.06492C22.3279 6.13054 22.306 6.19945 22.2929 6.26945C22.2787 6.34054 22.271 6.41163 22.271 6.48382C22.271 6.55492 22.2787 6.62601 22.2929 6.6971C22.306 6.7671 22.3279 6.83601 22.3552 6.90164C22.3826 6.96726 22.4154 7.0307 22.4547 7.09085C22.4952 7.14992 22.5412 7.20679 22.5915 7.2571C22.6418 7.30742 22.6976 7.35335 22.7577 7.39273C22.8168 7.4321 22.8802 7.46601 22.9458 7.49335C23.0126 7.5207 23.0815 7.54148 23.1515 7.5557C23.2215 7.56992 23.2937 7.57757 23.3647 7.57757C23.4358 7.57757 23.508 7.56992 23.578 7.5557C23.648 7.54148 23.7169 7.5207 23.7826 7.49335C23.8493 7.46601 23.9127 7.4321 23.9718 7.39273C24.0319 7.35335 24.0877 7.30742 24.138 7.2571C24.1883 7.20679 24.2343 7.14992 24.2737 7.09085C24.313 7.0307 24.3469 6.96726 24.3743 6.90164C24.4016 6.83601 24.4235 6.7671 24.4366 6.6971C24.4508 6.62601 24.4585 6.55492 24.4585 6.48382C24.4585 6.41163 24.4508 6.34054 24.4366 6.26945C24.4235 6.19945 24.4016 6.13054 24.3743 6.06492Z" fill="#5196F8"/>
<path d="M49.889 5.39414C49.2332 2.62159 46.739 0.551666 43.7688 0.551666H9.45186C4.24014 0.551557 0 4.7917 0 10.0034V44.3204C0 47.7286 2.7253 50.5105 6.111 50.6059C6.76681 53.3785 9.261 55.4484 12.2312 55.4484H49.7098C53.1782 55.4484 56 52.6266 56 49.1582V40.905V11.6796C56 8.27146 53.2747 5.48962 49.889 5.39414ZM53.8125 49.1585C53.8125 51.4207 51.972 53.2611 49.7098 53.2611H12.2312C10.4801 53.2611 8.98253 52.1581 8.39486 50.6106C8.22325 50.1589 8.12853 49.6697 8.12853 49.1585V48.4231V43.3559L20.6766 22.0798C21.0586 21.4321 21.7399 21.0539 22.4874 21.0659C23.2393 21.0788 23.9029 21.4807 24.2625 22.1412L29.6652 32.0617L37.5185 46.4821C37.7169 46.8465 38.0924 47.0529 38.48 47.0529C38.6567 47.0529 38.836 47.0099 39.0021 46.9194C39.5326 46.6305 39.7285 45.9662 39.4396 45.4358L36.8912 40.7562C38.0101 40.8078 39.1106 40.4454 39.9871 39.7184L44.9058 35.6381C45.6946 34.9837 46.8593 35.0124 47.6149 35.7051L47.8717 35.9405L50.0592 37.9457L53.8125 41.3863V49.1585ZM53.8125 38.4187L50.0591 34.978L47.8716 33.3123C46.4463 32.7162 44.7517 32.9236 43.509 33.9544L38.5903 38.0347C38.0494 38.4836 37.343 38.6649 36.6527 38.5322C35.9623 38.3997 35.3735 37.9694 35.0373 37.3521L31.5863 31.0153L29.6593 27.4769V27.4768L26.1837 21.0948C25.4424 19.7336 24.0745 18.9051 22.5248 18.8787C20.9755 18.8544 19.5798 19.6334 18.7924 20.9685L8.12842 39.0498V11.6796C8.12842 9.41739 9.96887 7.57693 12.2311 7.57693H18.9896C19.5937 7.57693 20.0833 7.08726 20.0833 6.48318C20.0833 5.8791 19.5937 5.38943 18.9896 5.38943H12.2311C8.76269 5.38943 5.94092 8.2112 5.94092 11.6796V43.0573V48.4071C3.84169 48.2291 2.1875 46.4649 2.1875 44.3204V10.0034C2.1875 5.99778 5.44633 2.73906 9.45186 2.73906H43.7688C45.5199 2.73906 47.0175 3.8421 47.6051 5.38954H27.7396C27.1355 5.38954 26.6458 5.87921 26.6458 6.48329C26.6458 7.08737 27.1355 7.57704 27.7396 7.57704H47.8715L50.059 7.59301C52.1583 7.77085 53.8125 9.53507 53.8125 11.6796V38.4187Z" fill="#5196F8"/>
</svg>
