<svg width="22" height="22" viewBox="0 0 22 22" fill="none" xmlns="http://www.w3.org/2000/svg">
<path d="M11 0C6.58878 0 3 3.57423 3 7.96753C3 13.4198 10.1592 21.4239 10.464 21.762C10.7503 22.0796 11.2502 22.079 11.536 21.762C11.8408 21.4239 19 13.4198 19 7.96753C18.9999 3.57423 15.4112 0 11 0ZM11 11.9762C8.7806 11.9762 6.97504 10.1779 6.97504 7.96753C6.97504 5.75713 8.78065 3.95889 11 3.95889C13.2194 3.95889 15.0249 5.75717 15.0249 7.96758C15.0249 10.178 13.2194 11.9762 11 11.9762Z" fill="#CCCCCC"/>
</svg>
