<svg width="22" height="22" viewBox="0 0 22 22" fill="none" xmlns="http://www.w3.org/2000/svg">
<path d="M5.59424 20.5V17.6527H3.5V15.0714H5.59424V12.9958H3.5V9.69608H5.59424V1.5H11.5628C13.9712 1.5 15.7251 1.99673 16.8246 2.9902C17.9415 3.98366 18.5 5.34967 18.5 7.08824C18.5 8.11718 18.2731 9.08403 17.8194 9.9888C17.3656 10.8936 16.6065 11.6209 15.5419 12.1709C14.4948 12.7208 13.0637 12.9958 11.2487 12.9958H9.54712V15.0714H13.5785V17.6527H9.54712V20.5H5.59424ZM9.54712 9.69608H10.856C11.9729 9.69608 12.8543 9.50093 13.5 9.11064C14.1632 8.72035 14.4948 8.09057 14.4948 7.22129C14.4948 5.60691 13.4476 4.79972 11.3534 4.79972H9.54712V9.69608Z" fill="#CCCCCC"/>
</svg>
